<svg xmlns="http://www.w3.org/2000/svg" viewBox="0 0 20 20" fill="currentColor">
  <path d="M 7,4 C 7,3.4477153 6.552285,3 6,3 H 4 C 3.447715,3 3,3.4477153 3,4 V 8 C 3,8.5522847 3.447715,9 4,9 H 6 C 6.552285,9 7,8.5522847 7,8 Z M 17,4 C 17,3.4477153 16.552285,3 16,3 H 10 C 9.447715,3 9,3.4477153 9,4 v 12 c 0,0.552285 0.447715,1 1,1 h 6 c 0.552285,0 1,-0.447715 1,-1 z M 6,11 c 0.552285,0 1,0.447715 1,1 v 4 c 0,0.552285 -0.447715,1 -1,1 H 4 C 3.447715,17 3,16.552285 3,16 v -4 c 0,-0.552285 0.447715,-1 1,-1 z"/>
</svg>
