<svg xmlns="http://www.w3.org/2000/svg" viewBox="0 0 24 24" fill="currentColor">
 <path fill-rule="evenodd" d="m6.5059 3.4707c-1.6819 0-3.0352 1.3532-3.0352 3.0352v10.988c0 1.6819 1.3532 3.0352 3.0352 3.0352h10.988c1.6819 0 3.0352-1.3532 3.0352-3.0352v-10.988c0-1.6819-1.3532-3.0352-3.0352-3.0352h-10.988zm8.5664 5.9453c0.36874-0.031161 0.67494 0.1507 0.88281 0.36133 0.20787 0.21063 0.35775 0.47043 0.48047 0.78711l0.70898 1.7656v-2.9082h1.3848v3.7871c0 0.30421-0.059061 0.59316-0.22852 0.85352-0.16946 0.26035-0.49446 0.47405-0.83203 0.48828-0.67515 0.028458-1.0973-0.47191-1.3535-1.0684l-0.001953-0.007813-0.6543-1.6289v2.7129h-1.3848v-3.7441c0-0.30178 0.045504-0.58001 0.1875-0.8418 0.142-0.26179 0.44181-0.52548 0.81055-0.55664zm-9.6016 0.0058594h1.3848v2.9688c0 0.29567 0.091295 0.42874 0.24805 0.55469 0.15675 0.12595 0.41261 0.21289 0.67773 0.21289s0.52098-0.086942 0.67773-0.21289c0.15675-0.12595 0.24609-0.25902 0.24609-0.55469v-2.9688h1.3848v2.9688c0 0.30173 0.090182 0.43962 0.23828 0.5625 0.1481 0.12289 0.38697 0.20508 0.63477 0.20508s0.48667-0.082194 0.63476-0.20508c0.1481-0.12288 0.23828-0.26077 0.23828-0.5625v-2.9688h1.3848v2.9688c0 0.67252-0.30126 1.2627-0.74023 1.627-0.43898 0.36424-0.9826 0.52539-1.5176 0.52539-0.53498 0-1.0786-0.16115-1.5176-0.52539-0.02287-0.01898-0.034541-0.052076-0.056641-0.072266-0.02487 0.02225-0.0367 0.059349-0.0625 0.080079-0.44951 0.36117-1.0017 0.51758-1.5449 0.51758s-1.0974-0.1564-1.5469-0.51758-0.76367-0.95619-0.76367-1.6348v-2.9688z" clip-rule="evenodd"/>
</svg>
