<svg width="20" height="20" viewBox="0 0 20 20" fill="currentColor" xmlns="http://www.w3.org/2000/svg">
<path fill-rule="evenodd" clip-rule="evenodd" d="M15.6569 15.6569C14.1566 17.1571 12.1217 18 10 18C7.87827 18 5.84344 17.1571 4.34315 15.6569C2.84285 14.1566 2 12.1217 2 10C2 7.87827 2.84285 5.84344 4.34315 4.34315C5.84344 2.84285 7.87827 2 10 2C12.1217 2 14.1566 2.84285 15.6569 4.34315C17.1571 5.84344 18 7.87827 18 10C18 12.1217 17.1571 14.1566 15.6569 15.6569ZM10.5193 9.99538L12.3149 13.0129L13.1805 9.99538L12.3149 6.97788L10.5193 9.99538ZM6.06258 10.4829L8.31863 12.7184L11.4493 13.5004L9.65374 10.4829H6.06258ZM11.4402 6.4811L8.31863 7.2631L6.05344 9.49861H9.6446L11.4402 6.4811ZM8.82501 6.05799L12.9043 5L14 8.97423L13.383 10.0046L14 11.0349L12.9043 15L8.82501 13.9328L8.21728 12.8933L6.99267 12.9025L4 9.99538L6.99267 7.08828L8.21728 7.09751L8.82501 6.05799Z"/>
</svg>
