<svg xmlns="http://www.w3.org/2000/svg" fill="none" viewBox="0 0 24 24" stroke="currentColor">
  <path stroke-linecap="round" stroke-linejoin="round" stroke-width="2" d="m8 5c0-0.55228-0.44772-1-1-1h-2c-0.55228 0-1 0.44772-1 1v4c0 0.55228 0.44772 1 1 1h2c0.55228 0 1-0.44772 1-1zm12 0c0-0.55228-0.44772-1-1-1h-6c-0.55228 0-1 0.44772-1 1v14c0 0.55228 0.44772 1 1 1h6c0.55228 0 1-0.44772 1-1zm-12 10c0-0.55228-0.44772-1-1-1h-2c-0.55228 0-1 0.44772-1 1v4c0 0.55228 0.44772 1 1 1h2c0.55228 0 1-0.44772 1-1z"/>
</svg>
