<svg width="24" height="24" viewBox="0 0 24 24" fill="none" xmlns="http://www.w3.org/2000/svg">
<path stroke="currentColor" stroke-width="2" d="M12 21C14.404 21 16.6641 20.0638 18.364 18.364C20.0638 16.6641 21 14.404 21 12C21 9.59601 20.0638 7.33592 18.364 5.63603C16.6641 3.93617 14.404 3 12 3C9.59601 3 7.33589 3.93617 5.63603 5.63603C3.93617 7.33592 3 9.59601 3 12C3 14.404 3.93617 16.6641 5.63603 18.364C7.33589 20.0638 9.59601 21 12 21Z"/>
<path fill="currentColor" fill-rule="evenodd" clip-rule="evenodd" d="M7.43611 9.94542C5.69571 11.842 6.02478 13.4081 6.02478 13.4081L6.02663 13.404L6.02742 13.4081C6.02742 13.4081 6.50723 12.3304 7.66255 11.1954C8.20967 10.6579 8.61036 10.478 8.88945 10.4773C9.19978 10.4765 9.34115 10.6971 9.34115 10.8937V14.7442C9.34115 15.124 9.0919 15.207 8.85454 15.2028C8.65197 15.1992 8.47248 15.1323 8.47248 15.1323L8.47395 15.1343L8.46832 15.1323C9.65365 16.7701 12.4915 17 12.4915 17L12.4917 16.9998L12.4936 17L13.7384 15.7361L13.7676 15.7594L14.9089 16.6838L14.9091 16.6837L14.9092 16.6838C16.6688 15.6898 17.6595 13.9797 17.9261 13.4695C17.9754 13.3751 18 13.3217 18 13.3217C17.0697 14.2581 16.4763 14.4766 16.1242 14.4748C15.812 14.4733 15.6894 14.2988 15.6894 14.2988C15.6725 14.2178 15.6435 13.0463 15.6331 11.8741C15.6225 10.6599 15.6318 9.44463 15.6958 9.44099C16.0559 8.79853 17.2049 7.50302 17.2049 7.50302L17.1992 7.50413L17.2002 7.50302C15.1229 7.89225 13.9555 9.15716 13.8832 9.23743C13.6228 9.04694 13.1555 9.02308 12.9377 9.02314C12.8649 9.02311 12.8199 9.02582 12.8199 9.02582C13.1499 9.19836 13.4612 9.70126 13.4612 10.1178V14.2127C13.4612 14.2127 12.7639 14.8124 12.2094 14.8158C11.8844 14.8141 11.7114 14.6445 11.6013 14.5056C11.5249 14.409 11.5113 14.3274 11.5113 14.3274V9.27007C11.478 9.28243 11.4495 9.29426 11.4237 9.30496C11.3518 9.33475 11.301 9.35582 11.2279 9.35542C11.1099 9.35488 10.9785 9.29868 10.8956 9.1334C10.833 9.00899 10.7879 8.82274 10.7879 8.55169C10.7879 7.61791 11.8958 7 11.8958 7L11.8905 7.00139L11.8929 7C10.4825 7.35924 9.17666 8.04889 7.43611 9.94542Z"/>
</svg>
