<svg width="20" height="20" viewBox="0 0 20 20" fill="none" xmlns="http://www.w3.org/2000/svg">
    <path fill="currentColor" d="M3.91458 11.4194C3.91458 11.4194 3.59693 9.84074 5.27693 7.92886C6.95707 6.01709 8.21763 5.32189 9.57906 4.95976L9.57668 4.96116L9.58186 4.95976C9.58186 4.95976 8.51238 5.58265 8.51238 6.52394C8.51238 6.79718 8.55597 6.98491 8.61631 7.11034C8.69642 7.27694 8.82325 7.3336 8.93712 7.33416C9.03303 7.33467 9.08922 7.29527 9.21064 7.24808V12.3462C9.21064 12.3462 9.22379 12.4284 9.29756 12.5257C9.40383 12.6658 9.5708 12.8367 9.88457 12.8385C10.4198 12.835 11.093 12.2305 11.093 12.2305V8.1027C11.093 7.68276 10.7924 7.17581 10.4739 7.00188C10.4739 7.00188 10.5173 6.99918 10.5876 6.99918C10.7978 6.99913 11.2489 7.02319 11.5003 7.21521C11.5701 7.13431 12.697 5.85919 14.7021 5.46683L14.7012 5.46795L14.7066 5.46683C14.7066 5.46683 13.5976 6.77275 13.25 7.42037C13.1882 7.42406 13.1792 8.64905 13.1895 9.87315C13.1995 11.0547 13.2275 12.2356 13.2438 12.3173C13.2438 12.3173 13.3621 12.4932 13.6635 12.4948C14.0033 12.4965 14.5761 12.2763 15.4742 11.3324C15.4742 11.3324 15.4505 11.3861 15.4028 11.4813C15.1455 11.9956 14.1892 13.7195 12.4906 14.7215L12.4905 14.7214L12.4904 14.7215L11.3886 13.7896L11.3605 13.7661L10.1589 15.0402L10.157 15.04L10.1569 15.0402C10.1569 15.0402 7.41753 14.8085 6.27332 13.1575L6.27876 13.1595L6.27733 13.1575C6.27733 13.1575 6.45059 13.2249 6.64614 13.2286C6.87528 13.2328 7.11584 13.1491 7.11584 12.7662V8.8848C7.11584 8.68658 6.9794 8.46426 6.67981 8.46509C6.41042 8.46579 6.02365 8.64704 5.49552 9.18896C4.3803 10.333 3.91713 11.4194 3.91713 11.4194L3.91637 11.4153L3.91458 11.4194ZM9.99998 18C12.1369 18 14.1459 17.1679 15.6569 15.6569C17.1679 14.1458 18 12.1369 18 9.99998C18 7.86312 17.1679 5.85415 15.6569 4.34314C14.1459 2.83215 12.1369 2 9.99998 2C7.86312 2 5.85412 2.83215 4.34314 4.34314C2.83215 5.85415 2 7.86312 2 9.99998C2 12.1369 2.83215 14.1458 4.34314 15.6569C5.85412 17.1679 7.86312 18 9.99998 18Z"/>
</svg>
